<svg width="33" height="40" viewBox="0 0 33 40" fill="none" xmlns="http://www.w3.org/2000/svg">
<path d="M0.413025 29.3638C0.413025 36.7604 0.413025 36.7605 7.82525 36.7605H12.2699H19.8701C20.085 36.7605 20.2595 36.59 20.2595 36.3932V35.4752V29.6261V25.6917C20.2595 25.1277 20.2595 25.1277 19.8164 24.9441L13.2367 21.9671C12.6862 21.731 12.6862 21.731 12.6862 22.3081V27.8556C12.6862 29.3638 12.6862 29.3638 10.4303 29.3638C8.02667 29.3638 8.0401 29.3638 8.0401 27.8556V10.8327V3.68523C8.0401 2.84589 3.89086 0 1.56783 0C0.413025 0 0.413025 1.08852 0.413025 1.25901V29.3638Z" fill="#486581"/>
<path d="M32.5869 39.0683V13.2587C32.5869 6.84557 32.6004 4.49805 22.6368 4.49805C12.7001 4.49805 12.7001 6.45213 12.7001 13.2587V16.4586C12.7001 16.734 12.7941 16.734 12.9284 16.7996L19.723 19.9996C20.2869 20.2619 20.2869 20.2619 20.2735 19.6586V13.1275C20.2735 12.1439 20.2735 11.921 22.5831 11.921C24.9196 11.921 24.9464 12.1439 24.9464 13.1013V36.5897C24.9464 37.3765 24.9464 37.3765 25.1747 37.6388C27.1083 39.0552 28.6391 39.9995 31.4187 39.9995C32.5869 40.0126 32.5869 39.0683 32.5869 39.0683Z" fill="#486581"/>
</svg>
